<?xml version="1.0" encoding="utf-8" ?>
<svg baseProfile="full" height="200mm" version="1.1" viewBox="0,0,200,200" width="200mm" xmlns="http://www.w3.org/2000/svg" xmlns:ev="http://www.w3.org/2001/xml-events" xmlns:xlink="http://www.w3.org/1999/xlink"><defs /><rect fill="#1a1a1a" height="200" width="200" x="0" y="0" /><text alignment-baseline="middle" fill="#e1ed5e" style="dominant-baseline: central; font-size:9.0px; font-family:Arial;" text-anchor="middle" x="100.0" y="100.0">2018</text><line stroke="#e1ed5e" stroke-width="0.3" x1="100.0" x2="100.0" y1="15.0" y2="10.0" /><path d="M 100.0 14.0 a86.0,86.0 0 0,1 42.46469731375804,11.215312516191453" fill="none" id="id25" stroke="none" /><text fill="#e1ed5e" style="font-size:6.75px; font-family:Arial;" text-anchor="middle"><textPath startOffset="22.20632615414155" xlink:href="#id25">January</textPath></text><path d="M 104.66035177308747 79.52364482259891 l 3.419924748669798 -15.026246352934379 a36.41051474629053,36.41051474629053 0 0,0 0.6099217444403214,0.1443487711278033 l -3.678070180072643 14.965151669665708" fill="#ffa70f" stroke="none" /><path d="M 107.4271985657038 80.35727306442388 l 2.9455733458048603 -7.790163732464239 a29.32844843377908,29.32844843377908 0 0,0 0.47067527936298564,0.1826146960136419 l -3.079231790167513 7.738306332560051" fill="#ff4206" stroke="none" /><line stroke="#e1ed5e" stroke-width="0.3" x1="143.23703022742887" x2="145.7803849466894" y1="26.81831364943548" y2="22.513508569990506" /><path d="M 143.74570117128098 25.957352633546492 a86.0,86.0 0 0,1 28.547481713284135,27.462654790039103" fill="none" id="id26" stroke="none" /><text fill="#e1ed5e" style="font-size:6.75px; font-family:Arial;" text-anchor="middle"><textPath startOffset="19.985693538727396" xlink:href="#id26">February</textPath></text><line stroke="#e1ed5e" stroke-width="0.3" x1="172.23445277983987" x2="176.4835382374775" y1="55.19839476539836" y2="52.563006222186495" /><path d="M 173.08426987136738 54.67131705675599 a86.0,86.0 0 0,1 12.851231095245387,41.99856678651699" fill="none" id="id27" stroke="none" /><text fill="#e1ed5e" style="font-size:6.75px; font-family:Arial;" text-anchor="middle"><textPath startOffset="22.20632615414155" xlink:href="#id27">March</textPath></text><path d="M 118.73160827565052 90.50648371742162 l 19.613459040780068 -9.940454125520809 a42.98864260853637,42.98864260853637 0 0,0 0.328842618656469,0.6629266529628569 l -19.781661672389944 9.601367884059002" fill="#fffe18" stroke="none" /><path d="M 119.196687751892 91.48605970444005 l 3.5938843895280512 -1.5939269064045178 a24.931489283751603,24.931489283751603 0 0,0 0.17061364893013117,0.3937998248643025 l -3.620788748300863 1.5318279369536125" fill="#ff0000" stroke="none" /><path d="M 119.61058180528143 92.48833698450437 l 14.958502040152386 -5.729724271207881 a37.01831837332845,37.01831837332845 0 0,0 0.22280693256069978,0.5970118066251558 l -15.05491356121471 5.471389327553392" fill="#ffaf10" stroke="none" /><path d="M 120.37134235888165 94.90015583598534 l 26.506254767381638 -6.635682926725782 a48.32423520791354,48.32423520791354 0 0,0 0.19506238562439757,0.8086595200393003 l -26.616549953266855 6.178438175027076" fill="#beff1e" stroke="none" /><path d="M 120.78858239683441 97.02765380044208 l 38.65252085141405 -5.526527555507018 a60.04561274958784,60.04561274958784 0 0,0 0.13748730000114212,1.0244400803650218 l -38.74192415047303 4.860369133077332" fill="#3cff2e" stroke="none" /><line stroke="#e1ed5e" stroke-width="0.3" x1="184.98032266829074" x2="189.97916517819016" y1="98.17113171792111" y2="98.06355123074" /><path d="M 185.9800911702706 98.14961562048488 a86.0,86.0 0 0,1 -9.607161424134198,41.387399972396054" fill="none" id="id28" stroke="none" /><text fill="#e1ed5e" style="font-size:6.75px; font-family:Arial;" text-anchor="middle"><textPath startOffset="21.466115282336823" xlink:href="#id28">April</textPath></text><path d="M 120.81339534386255 102.79330883721812 l 31.183872598910384 4.185102212787498 a52.463454845209746,52.463454845209746 0 0,0 -0.12782583114775434,0.8940135653290305 l -31.10721271674603 -4.721261250096938" fill="#8eff24" stroke="none" /><line stroke="#e1ed5e" stroke-width="0.3" x1="174.80103733775053" x2="179.2010983576182" y1="140.37084112569926" y2="142.7455964860345" /><path d="M 175.68104954172406 140.8457921977663 a86.0,86.0 0 0,1 -30.038265399797805,32.042727171017184" fill="none" id="id29" stroke="none" /><text fill="#e1ed5e" style="font-size:6.75px; font-family:Arial;" text-anchor="middle"><textPath startOffset="22.206326154141568" xlink:href="#id29">May</textPath></text><line stroke="#e1ed5e" stroke-width="0.3" x1="143.8653032363475" x2="146.44561519142675" y1="172.8068346515853" y2="177.08958963109032" /><path d="M 144.38136562736335 173.6633856474863 a86.0,86.0 0 0,1 -40.68145358897372,12.25698825130547" fill="none" id="id30" stroke="none" /><text fill="#e1ed5e" style="font-size:6.75px; font-family:Arial;" text-anchor="middle"><textPath startOffset="21.466115282336833" xlink:href="#id30">June</textPath></text><path d="M 102.34483914955558 120.86867818915974 l 2.634776212378453 23.449069795256605 a44.59662941930756,44.59662941930756 0 0,0 -0.7635949638306004,0.07914974015248082 l -2.2307486519422497 -23.490948903864844" fill="#ecff1a" stroke="none" /><line stroke="#e1ed5e" stroke-width="0.3" x1="102.19456741930631" x2="102.32365962044197" y1="184.97166512339345" y2="189.96999836594603" /><path d="M 102.22038585953345 185.97133177190398 a86.0,86.0 0 0,1 -42.740103519485714,-10.115201625700543" fill="none" id="id31" stroke="none" /><text fill="#e1ed5e" style="font-size:6.75px; font-family:Arial;" text-anchor="middle"><textPath startOffset="22.20632615414155" xlink:href="#id31">July</textPath></text><path d="M 100.54218724476979 120.99299961872073 l 0.6000907369296756 23.234970451787998 a44.24271844660194,44.24271844660194 0 0,0 -0.7614810416824375,0.013109586703129648 l -0.20005000535457032 -23.24185751577029" fill="#f0ff19" stroke="none" /><path d="M 91.07499286063937 119.00905698771935 l -16.41292300275534 34.95730410326333 a59.618611467301704,59.618611467301704 0 0,0 -0.9251881061242442,-0.444146514528262 l 17.012223776879825 -34.66960331223551" fill="#40ff2d" stroke="none" /><line stroke="#e1ed5e" stroke-width="0.3" x1="58.666819895761336" x2="56.23545636021788" y1="174.27360380694188" y2="178.64263932499728" /><path d="M 58.180547188652646 175.14741091055294 a86.0,86.0 0 0,1 -31.652253787137756,-30.449443065178592" fill="none" id="id32" stroke="none" /><text fill="#e1ed5e" style="font-size:6.75px; font-family:Arial;" text-anchor="middle"><textPath startOffset="22.20632615414155" xlink:href="#id32">August</textPath></text><path d="M 87.95078237400918 117.19931262002967 l -11.124392166146494 15.879196850146466 a40.38816633082982,40.38816633082982 0 0,0 -0.5659587442598571,-0.4037965368927536 l 11.396078238255235 -15.685356051409492" fill="#ffdc14" stroke="none" /><path d="M 86.51685102203217 116.09983520530335 l -12.403805489531866 14.811022605061986 a40.318922879648284,40.318922879648284 0 0,0 -0.5282441729246876,-0.45018114417901545 l 12.656915139033611 -14.595317070660018" fill="#ffdb14" stroke="none" /><path d="M 82.85270091963577 112.12312394758628 l -15.809187813056086 11.177080569372004 a40.361238322037,40.361238322037 0 0,0 -0.39619185969131554,-0.5707439232705419 l 15.999240579909536 -10.90329538391445" fill="#ffdc14" stroke="none" /><line stroke="#e1ed5e" stroke-width="0.3" x1="26.63291911575756" x2="22.317208475507996" y1="142.92168965132927" y2="145.44649492493687" /><path d="M 25.769776987707644 143.4266507060508 a86.0,86.0 0 0,1 -11.730757126820373,-40.83630448921669" fill="none" id="id33" stroke="none" /><text fill="#e1ed5e" style="font-size:6.75px; font-family:Arial;" text-anchor="middle"><textPath startOffset="21.46611528233685" xlink:href="#id33">September</textPath></text><path d="M 81.87401531095188 110.60418214915194 l -16.73142276023329 9.788326405857598 a40.384319472430846,40.384319472430846 0 0,0 -0.3458590116124462,-0.6030343392891543 l 16.897433767998113 -9.498872220710135" fill="#ffdc14" stroke="none" /><path d="M 80.87730276802145 108.67885076344099 l -35.397482236516424 16.065174384424115 a59.872504121634,59.872504121634 0 0,0 -0.4178499646899359,-0.9421413612067562 l 35.66877328593764 -15.453484686724662" fill="#3dff2e" stroke="none" /><path d="M 80.20201598880116 107.00284435728193 l -41.554369078643745 14.698404587971483 a65.07730353544605,65.07730353544605 0 0,0 -0.3644613139647196,-1.0592951789408984 l 41.80122122355169 -13.980936705941287" fill="#34ff5f" stroke="none" /><path d="M 79.76711848015287 105.62410040840567 l -60.698644559541364 16.872301225217015 a84.0,84.0 0 0,0 -0.37524769463290975,-1.3964362672978443 l 60.980080330516046 -15.824974024743632" fill="#4dd2ff" stroke="none" /><path d="M 79.4281124754447 104.21870165774334 l -20.549276913610548 4.214064872627667 a41.97691884960615,41.97691884960615 0 0,0 -0.13906366942105286,-0.7090826543752475 l 20.618770516007267 -3.859718491184464" fill="#fff116" stroke="none" /><path d="M 79.35854240842038 103.8639653848113 l -27.886197057684512 5.2201400829791735 a49.370580692434515,49.370580692434515 0 0,0 -0.14917804708167287,-0.8366697111357274 l 27.971921547105374 -4.739351621110233" fill="#b2ff20" stroke="none" /><path d="M 79.23777060512086 103.15116336523772 l -38.3829307662796 5.8255249463233385 a59.82249496244734,59.82249496244734 0 0,0 -0.1457559393003973,-1.0194166999876884 l 38.4775207565966 -5.163962774355249" fill="#3eff2d" stroke="none" /><line stroke="#e1ed5e" stroke-width="0.3" x1="15.007084014347285" x2="10.007500721073583" y1="101.09737516637583" y2="101.16192664675087" /><path d="M 14.007167355692545 101.11028546245083 a86.0,86.0 0 0,1 10.666146001902534,-42.60595125391555" fill="none" id="id34" stroke="none" /><text fill="#e1ed5e" style="font-size:6.75px; font-family:Arial;" text-anchor="middle"><textPath startOffset="22.20632615414155" xlink:href="#id34">October</textPath></text><path d="M 79.3925641242962 95.95851677861259 l -51.814923031674375 -10.161824271251806 a73.80197838431948,73.80197838431948 0 0,0 0.2552167444350301,-1.2445274842471377 l 51.632326991324355 11.052227411662345" fill="#40ffc4" stroke="none" /><line stroke="#e1ed5e" stroke-width="0.3" x1="26.266209847984243" x2="21.928928074336255" y1="57.711370442889674" y2="55.22380399835377" /><path d="M 25.398753493254645 57.213857153982495 a86.0,86.0 0 0,1 29.58750427330803,-30.492523968695096" fill="none" id="id35" stroke="none" /><text fill="#e1ed5e" style="font-size:6.75px; font-family:Arial;" text-anchor="middle"><textPath startOffset="21.46611528233685" xlink:href="#id35">November</textPath></text><path d="M 85.57189188830299 84.74124197986013 l -6.65506067507842 -7.038203461203919 a30.686389448616964,30.686389448616964 0 0,0 0.3869292381330707,-0.35960855777294715 l 6.532923553150493 7.151716605051516" fill="#ff5608" stroke="none" /><line stroke="#e1ed5e" stroke-width="0.3" x1="56.76296977257108" x2="54.21961505331056" y1="26.818313649435495" y2="22.513508569990535" /><path d="M 56.25429882871898 25.957352633546506 a86.0,86.0 0 0,1 42.26535254187918,-11.944610805530505" fill="none" id="id36" stroke="none" /><text fill="#e1ed5e" style="font-size:6.75px; font-family:Arial;" text-anchor="middle"><textPath startOffset="22.20632615414155" xlink:href="#id36">December</textPath></text></svg>