<?xml version="1.0" encoding="utf-8" ?>
<svg baseProfile="full" height="200mm" version="1.1" viewBox="0,0,200,200" width="200mm" xmlns="http://www.w3.org/2000/svg" xmlns:ev="http://www.w3.org/2001/xml-events" xmlns:xlink="http://www.w3.org/1999/xlink"><defs /><rect fill="#1a1a1a" height="200" width="200" x="0" y="0" /><text alignment-baseline="middle" fill="#e1ed5e" style="dominant-baseline: central; font-size:9.0px; font-family:Arial;" text-anchor="middle" x="100.0" y="100.0">2019</text><line stroke="#e1ed5e" stroke-width="0.3" x1="100.0" x2="100.0" y1="15.0" y2="10.0" /><path d="M 100.0 14.0 a86.0,86.0 0 0,1 42.46469731375804,11.215312516191453" fill="none" id="id37" stroke="none" /><text fill="#e1ed5e" style="font-size:6.75px; font-family:Arial;" text-anchor="middle"><textPath startOffset="22.20632615414155" xlink:href="#id37">January</textPath></text><line stroke="#e1ed5e" stroke-width="0.3" x1="143.23703022742887" x2="145.7803849466894" y1="26.81831364943548" y2="22.513508569990506" /><path d="M 143.74570117128098 25.957352633546492 a86.0,86.0 0 0,1 28.547481713284135,27.462654790039103" fill="none" id="id38" stroke="none" /><text fill="#e1ed5e" style="font-size:6.75px; font-family:Arial;" text-anchor="middle"><textPath startOffset="19.985693538727396" xlink:href="#id38">February</textPath></text><path d="M 113.34407831869373 83.78471172551755 l 9.462693905675506 -11.498756667124919 a35.89174203517702,35.89174203517702 0 0,0 0.47367265668842573,0.39668722788019944 l -9.65922409932305 11.3341682818509" fill="#ffa40f" stroke="none" /><path d="M 113.6212207817346 84.01681056812373 l 9.657366913378171 -11.33198905318683 a35.88887878925601,35.88887878925601 0 0,0 0.4667369217600203,0.404749659248285 l -9.850997633784957 11.16407440051887" fill="#ffa40f" stroke="none" /><path d="M 114.16331599549186 84.49514656593476 l 10.055226976574936 -11.007649661115899 a35.90892151070309,35.90892151070309 0 0,0 0.4527809198792294,0.42081051918046297 l -10.243215780249011 10.832934555860795" fill="#ffa40f" stroke="none" /><path d="M 114.68862486808459 84.99185889309783 l 15.182629431207008 -15.512891569071321 a42.70626732718266,42.70626732718266 0 0,0 0.5209436570337268,0.5187065594150702 l -15.447408888408054 15.249249159006133" fill="#fffd17" stroke="none" /><path d="M 115.4437574822437 85.77008943001954 l 21.113651266798737 -19.454162607625435 a49.709766849975004,49.709766849975004 0 0,0 0.5743995737924101,0.6342663558538748 l -21.44539448120718 19.08784346450201" fill="#abff21" stroke="none" /><path d="M 115.9244219780498 86.31012108654704 l 22.606701127408257 -19.43448883064204 a50.81211652956415,50.81211652956415 0 0,0 0.5644727377430062,0.6681576776210515 l -22.93788447863838 19.04247220339188" fill="#9fff22" stroke="none" /><line stroke="#e1ed5e" stroke-width="0.3" x1="172.23445277983987" x2="176.4835382374775" y1="55.19839476539836" y2="52.563006222186495" /><path d="M 173.08426987136738 54.67131705675599 a86.0,86.0 0 0,1 12.851231095245387,41.99856678651699" fill="none" id="id39" stroke="none" /><text fill="#e1ed5e" style="font-size:6.75px; font-family:Arial;" text-anchor="middle"><textPath startOffset="22.20632615414155" xlink:href="#id39">March</textPath></text><path d="M 118.3937258080291 89.86733742301442 l 28.078373969007927 -15.46770306939017 a53.056901331636595,53.056901331636595 0 0,0 0.43378286853366915,0.803733775192714 l -28.34046493676006 14.982088310864999" fill="#85ff25" stroke="none" /><path d="M 119.04729006885535 91.15688171328212 l 26.24531837965535 -12.184959333577819 a49.93596327773486,49.93596327773486 0 0,0 0.3552532006617608,0.7827533370619658 l -26.45117389728046 11.73138398767379" fill="#a9ff21" stroke="none" /><path d="M 119.47837535516314 92.15188598940014 l 26.69855575768599 -10.757227216546875 a49.784211243921284,49.784211243921284 0 0,0 0.3134187543094461,0.7976165434997998 l -26.879768061877137 10.29606166815129" fill="#abff21" stroke="none" /><path d="M 119.85752413597 93.16781622104841 l 27.432136692130346 -9.438306510249163 a50.010407671681136,50.010407671681136 0 0,0 0.27306327062914243,0.816424423032026 l -27.590537256531256 8.964708984294822" fill="#a8ff21" stroke="none" /><path d="M 120.18372546131832 94.20196356495316 l 27.74241735793527 -7.969368536341487 a49.86438212970958,49.86438212970958 0 0,0 0.2298824698900056,0.8270095551321838 l -27.87548659839164 7.490647677790351" fill="#aaff21" stroke="none" /><path d="M 120.37134235888165 94.90015583598534 l 27.775315673610393 -6.95338476209787 a49.63245921010771,49.63245921010771 0 0,0 0.20034307540047297,0.830551388356856 l -27.890891549271686 6.474248142081608" fill="#acff20" stroke="none" /><path d="M 120.53481517161879 95.60439243477599 l 27.998202751832196 -5.993193062615122 a49.63245921010771,49.63245921010771 0 0,0 0.17163543491943897,0.83695533575122 l -28.09721748266663 5.5103620707004906" fill="#acff20" stroke="none" /><path d="M 120.83666639777658 97.38593545837742 l 28.583061486346878 -3.585888745161761 a49.807117211289366,49.807117211289366 0 0,0 0.09939993810638136,0.8515979671762594 l -28.64055177745685 3.093347039660649" fill="#aaff21" stroke="none" /><path d="M 120.98425023603335 99.18683210126433 l 30.668115022502594 -1.18843067398277 a51.69113302731446,51.69113302731446 0 0,0 0.026801373825490315,0.8894071179140141 l -30.684028090783727 0.6603534086437567" fill="#94ff23" stroke="none" /><line stroke="#e1ed5e" stroke-width="0.3" x1="184.98032266829074" x2="189.97916517819016" y1="98.17113171792111" y2="98.06355123074" /><path d="M 185.9800911702706 98.14961562048488 a86.0,86.0 0 0,1 -9.607161424134198,41.387399972396054" fill="none" id="id40" stroke="none" /><text fill="#e1ed5e" style="font-size:6.75px; font-family:Arial;" text-anchor="middle"><textPath startOffset="21.466115282336823" xlink:href="#id40">April</textPath></text><path d="M 120.92983693683757 101.71520430193887 l 34.826305046198115 2.8540226288499717 a55.94305322001545,55.94305322001545 0 0,0 -0.0869126046093364,0.9590733495534943 l -34.77201784531171 -3.4530773669520367" fill="#65ff29" stroke="none" /><path d="M 120.8583938346157 102.4346265915055 l 17.296834700104444 2.01891545646546 a38.41426169158751,38.41426169158751 0 0,0 -0.08231351426276462,0.6561196976633479 l -17.25951967659483 -2.316352908416203" fill="#ffc612" stroke="none" /><path d="M 120.76222939487914 103.15116336523771 l 14.190936139144094 2.153812927773932 a35.353451802026996,35.353451802026996 0 0,0 -0.09649513497928255,0.6008752976277918 l -14.151759249803524 -2.3977674550949293" fill="#ff9c0e" stroke="none" /><path d="M 120.13307415673323 105.97154293290107 l 27.642601930414518 8.198896150658614 a49.83288642457846,49.83288642457846 0 0,0 -0.2509992967839519,0.8202802246120728 l -27.497375861124432 -8.673503347822743" fill="#aaff21" stroke="none" /><path d="M 119.79798401119884 107.00284435728193 l 28.761648816887273 10.17342725448878 a51.50788528836976,51.50788528836976 0 0,0 -0.3028559142875937,0.833329404679958 l -28.582268641594453 -10.66700445617487" fill="#97ff23" stroke="none" /><path d="M 119.54520255179757 107.68017299344265 l 27.0912869801719 10.645362721175019 a50.107758032995505,50.107758032995505 0 0,0 -0.32235367217528343,0.8000553783067967 l -26.904030693739227 -11.11011746732463" fill="#a7ff21" stroke="none" /><path d="M 118.81262510543309 109.33194174019688 l 30.980168980151003 15.367612462586631 a55.582284233968096,55.582284233968096 0 0,0 -0.43253956313489295,0.8534415931041309 l -30.71105074722984 -15.898608267393458" fill="#69ff28" stroke="none" /><line stroke="#e1ed5e" stroke-width="0.3" x1="174.80103733775053" x2="179.2010983576182" y1="140.37084112569926" y2="142.7455964860345" /><path d="M 175.68104954172406 140.8457921977663 a86.0,86.0 0 0,1 -30.038265399797805,32.042727171017184" fill="none" id="id41" stroke="none" /><text fill="#e1ed5e" style="font-size:6.75px; font-family:Arial;" text-anchor="middle"><textPath startOffset="22.206326154141568" xlink:href="#id41">May</textPath></text><path d="M 117.75023020441432 111.22182372390056 l 3.0179344268833335 1.9079599396042333 a24.57046766350043,24.57046766350043 0 0,0 -0.22908467014594447,0.3555444953698184 l -2.9846448933603384 -1.9596260348955048" fill="#ff0000" stroke="none" /><path d="M 117.35343817320211 111.8261652097733 l 23.814346481835997 16.229198677866858 a49.81857019497341,49.81857019497341 0 0,0 -0.4890264222129171,0.7044790345117462 l -23.531459152460943 -16.636718974565625" fill="#aaff21" stroke="none" /><path d="M 116.93607887273984 112.41649034213515 l 23.283163651388787 17.069782136947047 a49.87010862155161,49.87010862155161 0 0,0 -0.5135166246715471,0.6879394364349986 l -22.985885760022146 -17.468034452891363" fill="#aaff21" stroke="none" /><path d="M 115.80600337817218 113.82643327865902 l 47.418010134516535 41.47929983597707 a84.0,84.0 0 0,0 -0.9613646014066655,1.080103321036534 l -46.69698668346154 -42.289377326754476" fill="#4dd2ff" stroke="none" /><path d="M 113.75828350139079 115.86535959552629 l 19.524094171132393 22.51420206384187 a50.800663545880106,50.800663545880106 0 0,0 -0.6655722073459758,0.5672150743809121 l -19.133656487209368 -22.846941528445733" fill="#9fff22" stroke="none" /><path d="M 113.20401910651253 116.32954008644616 l 18.22626315970543 22.540598623166968 a49.98750170431305,49.98750170431305 0 0,0 -0.6737422769135453,0.5352616122338556 l -17.83556339007453 -22.85099414940595" fill="#a8ff21" stroke="none" /><path d="M 111.45004920935366 117.60387380957326 l 15.61157461621643 24.00200946630904 a49.63245921010771,49.63245921010771 0 0,0 -0.7201863585944405,0.4596570084931813 l -15.196106455575059 -24.26718090362603" fill="#acff20" stroke="none" /><line stroke="#e1ed5e" stroke-width="0.3" x1="143.8653032363475" x2="146.44561519142675" y1="172.8068346515853" y2="177.08958963109032" /><path d="M 144.38136562736335 173.6633856474863 a86.0,86.0 0 0,1 -40.68145358897372,12.25698825130547" fill="none" id="id42" stroke="none" /><text fill="#e1ed5e" style="font-size:6.75px; font-family:Arial;" text-anchor="middle"><textPath startOffset="21.466115282336833" xlink:href="#id42">June</textPath></text><path d="M 109.2508944713604 118.85261126421891 l 13.673900872247156 27.866358048729335 a52.040449029677774,52.040449029677774 0 0,0 -0.8075868138262651,0.38769074760646227 l -13.192201390420658 -28.09760307283536" fill="#91ff24" stroke="none" /><line stroke="#e1ed5e" stroke-width="0.3" x1="102.19456741930631" x2="102.32365962044197" y1="184.97166512339345" y2="189.96999836594603" /><path d="M 102.22038585953345 185.97133177190398 a86.0,86.0 0 0,1 -42.740103519485714,-10.115201625700543" fill="none" id="id43" stroke="none" /><text fill="#e1ed5e" style="font-size:6.75px; font-family:Arial;" text-anchor="middle"><textPath startOffset="22.20632615414155" xlink:href="#id43">July</textPath></text><path d="M 91.7346041902142 119.30500536409082 l -9.98135854482654 23.312879949518575 a46.3597691223924,46.3597691223924 0 0,0 -0.7308933849554504,-0.32040218098783246 l 10.381172604439733 -23.13761321523629" fill="#d3ff1c" stroke="none" /><line stroke="#e1ed5e" stroke-width="0.3" x1="58.666819895761336" x2="56.23545636021788" y1="174.27360380694188" y2="178.64263932499728" /><path d="M 58.180547188652646 175.14741091055294 a86.0,86.0 0 0,1 -31.652253787137756,-30.449443065178592" fill="none" id="id44" stroke="none" /><text fill="#e1ed5e" style="font-size:6.75px; font-family:Arial;" text-anchor="middle"><textPath startOffset="22.20632615414155" xlink:href="#id44">August</textPath></text><path d="M 82.44556493220864 111.52570212397912 l -14.480434326247028 9.507407787584466 a38.32263782211517,38.32263782211517 0 0,0 -0.35730410038728744,-0.5545438984844834 l 14.64194329001136 -9.256742289178534" fill="#ffc412" stroke="none" /><line stroke="#e1ed5e" stroke-width="0.3" x1="26.63291911575756" x2="22.317208475507996" y1="142.92168965132927" y2="145.44649492493687" /><path d="M 25.769776987707644 143.4266507060508 a86.0,86.0 0 0,1 -11.730757126820373,-40.83630448921669" fill="none" id="id45" stroke="none" /><text fill="#e1ed5e" style="font-size:6.75px; font-family:Arial;" text-anchor="middle"><textPath startOffset="21.46611528233685" xlink:href="#id45">September</textPath></text><line stroke="#e1ed5e" stroke-width="0.3" x1="15.007084014347285" x2="10.007500721073583" y1="101.09737516637583" y2="101.16192664675087" /><path d="M 14.007167355692545 101.11028546245083 a86.0,86.0 0 0,1 10.666146001902534,-42.60595125391555" fill="none" id="id46" stroke="none" /><text fill="#e1ed5e" style="font-size:6.75px; font-family:Arial;" text-anchor="middle"><textPath startOffset="22.20632615414155" xlink:href="#id46">October</textPath></text><path d="M 81.10775173730289 90.83032412892265 l -13.412526024250857 -6.509998944784764 a35.90892151070309,35.90892151070309 0 0,0 0.27468612792077435,-0.5537504723135515 l 13.29847988337667 6.739909005597276" fill="#ffa40f" stroke="none" /><line stroke="#e1ed5e" stroke-width="0.3" x1="26.266209847984243" x2="21.928928074336255" y1="57.711370442889674" y2="55.22380399835377" /><path d="M 25.398753493254645 57.213857153982495 a86.0,86.0 0 0,1 29.58750427330803,-30.492523968695096" fill="none" id="id47" stroke="none" /><text fill="#e1ed5e" style="font-size:6.75px; font-family:Arial;" text-anchor="middle"><textPath startOffset="21.46611528233685" xlink:href="#id47">November</textPath></text><line stroke="#e1ed5e" stroke-width="0.3" x1="56.76296977257108" x2="54.21961505331056" y1="26.818313649435495" y2="22.513508569990535" /><path d="M 56.25429882871898 25.957352633546506 a86.0,86.0 0 0,1 42.26535254187918,-11.944610805530505" fill="none" id="id48" stroke="none" /><text fill="#e1ed5e" style="font-size:6.75px; font-family:Arial;" text-anchor="middle"><textPath startOffset="22.20632615414155" xlink:href="#id48">December</textPath></text></svg>