<?xml version="1.0" encoding="utf-8" ?>
<svg baseProfile="full" height="200mm" version="1.1" viewBox="0,0,200,200" width="200mm" xmlns="http://www.w3.org/2000/svg" xmlns:ev="http://www.w3.org/2001/xml-events" xmlns:xlink="http://www.w3.org/1999/xlink"><defs /><rect fill="#1a1a1a" height="200" width="200" x="0" y="0" /><text alignment-baseline="middle" fill="#e1ed5e" style="dominant-baseline: central; font-size:9.0px; font-family:Arial;" text-anchor="middle" x="100.0" y="100.0">2016</text><line stroke="#e1ed5e" stroke-width="0.3" x1="100.0" x2="100.0" y1="15.0" y2="10.0" /><path d="M 100.0 14.0 a86.0,86.0 0 0,1 42.35913384403234,11.155469271406648" fill="none" id="id1" stroke="none" /><text fill="#e1ed5e" style="font-size:6.75px; font-family:Arial;" text-anchor="middle"><textPath startOffset="22.145653131862478" xlink:href="#id1">January</textPath></text><line stroke="#e1ed5e" stroke-width="0.3" x1="143.13028292997686" x2="145.6673583964461" y1="26.7553504044142" y2="22.446841604673864" /><path d="M 143.63769802327073 25.89364864446614 a86.0,86.0 0 0,1 29.32050498858742,28.57503671076993" fill="none" id="id2" stroke="none" /><text fill="#e1ed5e" style="font-size:6.75px; font-family:Arial;" text-anchor="middle"><textPath startOffset="20.669276256404974" xlink:href="#id2">February</textPath></text><line stroke="#e1ed5e" stroke-width="0.3" x1="172.87174338648825" x2="177.1583165268699" y1="56.24261187166439" y2="53.66864786411523" /><path d="M 173.72905801456457 55.72781907015455 a86.0,86.0 0 0,1 12.242430191666344,42.057860355516425" fill="none" id="id3" stroke="none" /><text fill="#e1ed5e" style="font-size:6.75px; font-family:Arial;" text-anchor="middle"><textPath startOffset="22.145653131862474" xlink:href="#id3">March</textPath></text><line stroke="#e1ed5e" stroke-width="0.3" x1="184.99686870605535" x2="189.99668451229388" y1="99.2704041080226" y2="99.22748670261217" /><path d="M 185.99683186730306 99.26182062694052 a86.0,86.0 0 0,1 -10.086455211305974,41.156179273409016" fill="none" id="id4" stroke="none" /><text fill="#e1ed5e" style="font-size:6.75px; font-family:Arial;" text-anchor="middle"><textPath startOffset="21.40746469413373" xlink:href="#id4">April</textPath></text><line stroke="#e1ed5e" stroke-width="0.3" x1="174.33088141563837" x2="178.70328620479359" y1="141.23008692659167" y2="143.65538615756765" /><path d="M 175.20536237346943 141.71514677278685 a86.0,86.0 0 0,1 -30.301960400862466,31.631185727798858" fill="none" id="id5" stroke="none" /><text fill="#e1ed5e" style="font-size:6.75px; font-family:Arial;" text-anchor="middle"><textPath startOffset="22.145653131862474" xlink:href="#id5">May</textPath></text><path d="M 117.01052211995028 112.31430620078461 l 17.629086560675745 12.762099153540413 a42.763636363636365,42.763636363636365 0 0,0 -0.43557406921110897,0.5909398793070088 l -17.407410471880805 -13.0628453421163" fill="#ffe015" stroke="none" /><path d="M 116.35404254752997 113.17365903436017 l 18.537391526813614 14.932410420906193 a44.80360824742268,44.80360824742268 0 0,0 -0.48761938926356724,0.5948163690979061 l -18.27832531831142 -15.248429071702592" fill="#fffc17" stroke="none" /><path d="M 115.41159269507618 114.26474011684316 l 22.421917450985482 20.753392052841118 a51.55234301780693,51.55234301780693 0 0,0 -0.6067076587656302,0.6443025088044811 l -22.06235395848359 -21.135236021590096" fill="#abff21" stroke="none" /><path d="M 114.39649973595853 115.28858382429668 l 11.467277531013261 12.17785135170548 a37.72717900656045,37.72717900656045 0 0,0 -0.47530897035450437,0.43993888700922357 l -11.25653878934479 -12.372907984847082" fill="#ff990e" stroke="none" /><path d="M 113.59037401385872 116.0094264158162 l 19.1933782581853 22.609751327079124 a50.65782567947517,50.65782567947517 0 0,0 -0.6677803011253031,0.5570860776281512 l -18.802423622898104 -22.935899588619147" fill="#b7ff1f" stroke="none" /><line stroke="#e1ed5e" stroke-width="0.3" x1="143.1302829299769" x2="145.66735839644613" y1="173.24464959558577" y2="177.55315839532614" /><path d="M 143.63769802327073 174.10635135553383 a86.0,86.0 0 0,1 -40.68552437913181,11.842963189579606" fill="none" id="id6" stroke="none" /><text fill="#e1ed5e" style="font-size:6.75px; font-family:Arial;" text-anchor="middle"><textPath startOffset="21.407464694133747" xlink:href="#id6">June</textPath></text><path d="M 110.65571695917076 118.09573695890943 l 5.4257272951429005 9.214071124438135 a31.692877225866916,31.692877225866916 0 0,0 -0.47117880881387086,0.2720352121051366 l -5.266756018468631 -9.305853233819445" fill="#ff3e05" stroke="none" /><path d="M 109.3889696526874 118.78422872680471 l 17.72640990191073 35.46469425505912 a60.648078725398314,60.648078725398314 0 0,0 -0.9352504141508277,0.4574778435570814 l -17.114999238497834 -35.763765848713426" fill="#42ff2d" stroke="none" /><path d="M 108.4095320186766 119.2426549942271 l 25.228596056029783 57.7279649826813 a84.0,84.0 0 0,0 -1.3262596993182754,0.5661014013623844 l -24.233901281541076 -58.15254103370309" fill="#4dd2ff" stroke="none" /><path d="M 104.9986988182912 120.39639698878246 l 3.698428099437666 15.090848737389233 a36.53744142455483,36.53744142455483 0 0,0 -0.6104673038328036,0.14406862148825242 l -3.4388286418649834 -15.152113502523711" fill="#ff870c" stroke="none" /><path d="M 101.80034050326958 120.92268563240118 l 1.907061718669581 22.16294792504352 a43.24484536082474,43.24484536082474 0 0,0 -0.7401684875633674,0.057293722090082815 l -1.526324236330978 -22.19241941412866" fill="#ffe715" stroke="none" /><line stroke="#e1ed5e" stroke-width="0.3" x1="101.45913802915013" x2="101.54496967792366" y1="184.9874750549273" y2="189.98673829345242" /><path d="M 101.47630435890484 185.9873277026323 a86.0,86.0 0 0,1 -42.54439059252881,-10.42667462771756" fill="none" id="id7" stroke="none" /><text fill="#e1ed5e" style="font-size:6.75px; font-family:Arial;" text-anchor="middle"><textPath startOffset="22.145653131862474" xlink:href="#id7">July</textPath></text><path d="M 100.0 121.0 l 3.632036128803944e-15 29.657825679475167 a50.65782567947517,50.65782567947517 0 0,0 -0.8696089402703473,-0.007464546872217448 l 0.5091160154214915 -29.653455530797384" fill="#b7ff1f" stroke="none" /><path d="M 96.05791012581884 120.62667999033965 l -1.270742092056807 6.649059590138072 a27.769400187441423,27.769400187441423 0 0,0 -0.46745621718846736,-0.09350433531259193 l 1.3846947947762327 -6.626265858162618" fill="#ff0000" stroke="none" /><path d="M 94.30408787586889 120.21278271476187 l -2.4126218224002414 8.561543718778472 a29.89498594189316,29.89498594189316 0 0,0 -0.49275476494185416,-0.14343373058968456 l 2.5592365997237025 -8.518866293886271" fill="#ff2203" stroke="none" /><path d="M 93.61358852112213 120.00534299687104 l -2.808345141414712 8.797101156637195 a30.234489222118086,30.234489222118086 0 0,0 -0.4930773855909431,-0.16208433040507447 l 2.9589452646533987 -8.7475959048301" fill="#ff2703" stroke="none" /><line stroke="#e1ed5e" stroke-width="0.3" x1="58.13341422392154" x2="55.67067388415222" y1="173.97424548756322" y2="178.32567169271397" /><path d="M 57.64086615596768 174.84453072859336 a86.0,86.0 0 0,1 -31.369924170532247,-30.572349798747897" fill="none" id="id8" stroke="none" /><text fill="#e1ed5e" style="font-size:6.75px; font-family:Arial;" text-anchor="middle"><textPath startOffset="22.145653131862474" xlink:href="#id8">August</textPath></text><path d="M 82.37810715431573 111.42229804090323 l -5.839006762503912 3.784773638576696 a27.95834114339269,27.95834114339269 0 0,0 -0.25759258965402254,-0.4049783359280343 l 5.9031170437838245 -3.6839816279699895" fill="#ff0300" stroke="none" /><line stroke="#e1ed5e" stroke-width="0.3" x1="26.387840678322732" x2="22.057713659400534" y1="142.50000000000003" y2="145.00000000000006" /><path d="M 25.521815274538284 143.00000000000003 a86.0,86.0 0 0,1 -11.493303480769212,-40.785679425670985" fill="none" id="id9" stroke="none" /><text fill="#e1ed5e" style="font-size:6.75px; font-family:Arial;" text-anchor="middle"><textPath startOffset="21.40746469413373" xlink:href="#id9">September</textPath></text><path d="M 79.48165901384964 104.47187691870673 l -21.32215228251502 4.647063849542664 a42.822680412371135,42.822680412371135 0 0,0 -0.15037345153546644,-0.7195914013994441 l 21.398783444874855 -4.280355996857811" fill="#ffe115" stroke="none" /><line stroke="#e1ed5e" stroke-width="0.3" x1="15.003131293944662" x2="10.003315487706104" y1="100.72959589197737" y2="100.7725132973878" /><path d="M 14.003168132696942 100.73817937305945 a86.0,86.0 0 0,1 10.791469493833604,-42.45332614584628" fill="none" id="id10" stroke="none" /><text fill="#e1ed5e" style="font-size:6.75px; font-family:Arial;" text-anchor="middle"><textPath startOffset="22.145653131862435" xlink:href="#id10">October</textPath></text><line stroke="#e1ed5e" stroke-width="0.3" x1="26.387840678322718" x2="22.05771365940052" y1="57.49999999999999" y2="54.99999999999999" /><path d="M 25.521815274538284 56.99999999999999 a86.0,86.0 0 0,1 29.574782752854787,-30.34633250058573" fill="none" id="id11" stroke="none" /><text fill="#e1ed5e" style="font-size:6.75px; font-family:Arial;" text-anchor="middle"><textPath startOffset="21.40746469413373" xlink:href="#id11">November</textPath></text><path d="M 82.37810715431573 88.57770195909679 l -14.878690969706618 -9.644187727319311 a38.730927835051546,38.730927835051546 0 0,0 0.36642327708331524,-0.5548115439705359 l 14.710943253702572 9.898179149628909" fill="#ffa70f" stroke="none" /><line stroke="#e1ed5e" stroke-width="0.3" x1="56.869717070023135" x2="54.33264160355391" y1="26.7553504044142" y2="22.446841604673864" /><path d="M 56.362301976729285 25.89364864446614 a86.0,86.0 0 0,1 42.16139366436587,-11.88097634709845" fill="none" id="id12" stroke="none" /><text fill="#e1ed5e" style="font-size:6.75px; font-family:Arial;" text-anchor="middle"><textPath startOffset="22.145653131862474" xlink:href="#id12">December</textPath></text></svg>