<?xml version="1.0" encoding="utf-8" ?>
<svg baseProfile="full" height="200mm" version="1.1" viewBox="0,0,200,200" width="200mm" xmlns="http://www.w3.org/2000/svg" xmlns:ev="http://www.w3.org/2001/xml-events" xmlns:xlink="http://www.w3.org/1999/xlink"><defs /><rect fill="#1a1a1a" height="200" width="200" x="0" y="0" /><text alignment-baseline="middle" fill="#e1ed5e" style="dominant-baseline: central; font-size:9.0px; font-family:Arial;" text-anchor="middle" x="100.0" y="100.0">2017</text><line stroke="#e1ed5e" stroke-width="0.3" x1="100.0" x2="100.0" y1="15.0" y2="10.0" /><path d="M 100.0 14.0 a86.0,86.0 0 0,1 42.46469731375804,11.215312516191453" fill="none" id="id13" stroke="none" /><text fill="#e1ed5e" style="font-size:6.75px; font-family:Arial;" text-anchor="middle"><textPath startOffset="22.20632615414155" xlink:href="#id13">January</textPath></text><line stroke="#e1ed5e" stroke-width="0.3" x1="143.23703022742887" x2="145.7803849466894" y1="26.81831364943548" y2="22.513508569990506" /><path d="M 143.74570117128098 25.957352633546492 a86.0,86.0 0 0,1 28.547481713284135,27.462654790039103" fill="none" id="id14" stroke="none" /><text fill="#e1ed5e" style="font-size:6.75px; font-family:Arial;" text-anchor="middle"><textPath startOffset="19.985693538727396" xlink:href="#id14">February</textPath></text><line stroke="#e1ed5e" stroke-width="0.3" x1="172.23445277983987" x2="176.4835382374775" y1="55.19839476539836" y2="52.563006222186495" /><path d="M 173.08426987136738 54.67131705675599 a86.0,86.0 0 0,1 12.851231095245387,41.99856678651699" fill="none" id="id15" stroke="none" /><text fill="#e1ed5e" style="font-size:6.75px; font-family:Arial;" text-anchor="middle"><textPath startOffset="22.20632615414155" xlink:href="#id15">March</textPath></text><path d="M 120.28053869075195 94.5502522615342 l 27.317752800849153 -7.3407745137599925 a49.28686247271284,49.28686247271284 0 0,0 0.2131156144345833,0.8212213977468785 l -27.44006474715404 6.869456690464263" fill="#e7ff1a" stroke="none" /><path d="M 120.78858239683441 97.02765380044208 l 18.744378670374505 -2.680066473048496 a39.93500694582258,39.93500694582258 0 0,0 0.09143975769563101,0.6813324046765933 l -18.787734427127972 2.3570157263072384" fill="#ff8c0c" stroke="none" /><line stroke="#e1ed5e" stroke-width="0.3" x1="184.98032266829074" x2="189.97916517819016" y1="98.17113171792111" y2="98.06355123074" /><path d="M 185.9800911702706 98.14961562048488 a86.0,86.0 0 0,1 -9.607161424134198,41.387399972396054" fill="none" id="id16" stroke="none" /><text fill="#e1ed5e" style="font-size:6.75px; font-family:Arial;" text-anchor="middle"><textPath startOffset="21.466115282336823" xlink:href="#id16">April</textPath></text><path d="M 119.12269723197855 108.67885076344098 l 9.477859959687718 4.3015339912073545 a31.408315141893233,31.408315141893233 0 0,0 -0.22767346699476304,0.4903883931242495 l -9.402411875853124 -4.4640424516104344" fill="#ff0000" stroke="none" /><path d="M 118.81262510543309 109.33194174019688 l 34.771062496418146 17.24807291076079 a59.813951180789836,59.813951180789836 0 0,0 -0.4654702603478018,0.9184169828412542 l -34.469013566284076 -17.844044105304736" fill="#5dff2a" stroke="none" /><line stroke="#e1ed5e" stroke-width="0.3" x1="174.80103733775053" x2="179.2010983576182" y1="140.37084112569926" y2="142.7455964860345" /><path d="M 175.68104954172406 140.8457921977663 a86.0,86.0 0 0,1 -30.038265399797805,32.042727171017184" fill="none" id="id17" stroke="none" /><text fill="#e1ed5e" style="font-size:6.75px; font-family:Arial;" text-anchor="middle"><textPath startOffset="22.206326154141568" xlink:href="#id17">May</textPath></text><line stroke="#e1ed5e" stroke-width="0.3" x1="143.8653032363475" x2="146.44561519142675" y1="172.8068346515853" y2="177.08958963109032" /><path d="M 144.38136562736335 173.6633856474863 a86.0,86.0 0 0,1 -40.68145358897372,12.25698825130547" fill="none" id="id18" stroke="none" /><text fill="#e1ed5e" style="font-size:6.75px; font-family:Arial;" text-anchor="middle"><textPath startOffset="21.466115282336833" xlink:href="#id18">June</textPath></text><path d="M 104.48393922423573 120.51570834832081 l 7.046253770015997 32.239261074851825 a54.000297678110734,54.000297678110734 0 0,0 -0.909798400184329,0.19065710056277885 l -6.49026390840229 -32.355774156141145" fill="#a7ff21" stroke="none" /><path d="M 104.13013068566511 120.58985236759428 l 2.5793850501663207 12.858953244853977 a34.11510220281802,34.11510220281802 0 0,0 -0.5767602911522184,0.11053748250038499 l -2.357657144442398 -12.90144792570283" fill="#ff2e04" stroke="none" /><line stroke="#e1ed5e" stroke-width="0.3" x1="102.19456741930631" x2="102.32365962044197" y1="184.97166512339345" y2="189.96999836594603" /><path d="M 102.22038585953345 185.97133177190398 a86.0,86.0 0 0,1 -42.740103519485714,-10.115201625700543" fill="none" id="id19" stroke="none" /><text fill="#e1ed5e" style="font-size:6.75px; font-family:Arial;" text-anchor="middle"><textPath startOffset="22.20632615414155" xlink:href="#id19">July</textPath></text><path d="M 98.01472825383883 120.90594882070398 l -5.955815238483529 62.71784646211194 a84.0,84.0 0 0,0 -1.4382696135776267,-0.14908252617695705 l 7.034517448666749 -62.60603456747922" fill="#4dd2ff" stroke="none" /><path d="M 96.93821686468263 120.77559828337769 l -2.910182640722864 19.746919622591285 a40.96021035919826,40.96021035919826 0 0,0 -0.6966437218741198,-0.10880142215498531 l 3.249662226205501 -19.693899893089192" fill="#ff9c0e" stroke="none" /><path d="M 94.46302465271185 120.25689768951611 l -3.7184212294548717 13.603759035785377 a35.10279817424092,35.10279817424092 0 0,0 -0.581484257006318,-0.16433325931923684 l 3.952036654565804 -13.537736983127617" fill="#ff3e05" stroke="none" /><path d="M 91.7346041902142 119.30500536409082 l -9.917982886261127 23.16485710140408 a46.19874975193491,46.19874975193491 0 0,0 -0.7283548047393504,-0.31928934202308995 l 10.315258365658222 -22.99070320608654" fill="#ffeb16" stroke="none" /><line stroke="#e1ed5e" stroke-width="0.3" x1="58.666819895761336" x2="56.23545636021788" y1="174.27360380694188" y2="178.64263932499728" /><path d="M 58.180547188652646 175.14741091055294 a86.0,86.0 0 0,1 -31.652253787137756,-30.449443065178592" fill="none" id="id20" stroke="none" /><text fill="#e1ed5e" style="font-size:6.75px; font-family:Arial;" text-anchor="middle"><textPath startOffset="22.20632615414155" xlink:href="#id20">August</textPath></text><path d="M 84.4343377721795 114.09645910891817 l -14.669841222448813 13.285192361232859 a40.791426870410795,40.791426870410795 0 0,0 -0.46685040278668594,-0.5245113765779715 l 14.896350474883834 -13.030706814914021" fill="#ff9a0e" stroke="none" /><path d="M 83.28015986056508 112.70617746262583 l -15.558509707047104 11.823628918883221 a40.54137725739234,40.54137725739234 0 0,0 -0.4174579078369146,-0.5592530875438528 l 15.759728881579104 -11.554062951830064" fill="#ff960d" stroke="none" /><line stroke="#e1ed5e" stroke-width="0.3" x1="26.63291911575756" x2="22.317208475507996" y1="142.92168965132927" y2="145.44649492493687" /><path d="M 25.769776987707644 143.4266507060508 a86.0,86.0 0 0,1 -11.730757126820373,-40.83630448921669" fill="none" id="id21" stroke="none" /><text fill="#e1ed5e" style="font-size:6.75px; font-family:Arial;" text-anchor="middle"><textPath startOffset="21.46611528233685" xlink:href="#id21">September</textPath></text><path d="M 80.58989483394504 108.01547362559985 l -30.4209774853977 12.562453454688391 a53.91278031355428,53.91278031355428 0 0,0 -0.34683217516556913,-0.8608090152612718 l 30.63271227482066 -12.036945071584313" fill="#a8ff21" stroke="none" /><path d="M 80.32549172779594 107.34259656027581 l -19.444145901086763 7.256624502911994 a41.75411788053185,41.75411788053185 0 0,0 -0.24550574101779254,-0.6755263587608081 l 19.56617590310978 -6.920850347145069" fill="#ffa90f" stroke="none" /><path d="M 80.0844068197444 106.66101706037122 l -37.278006524344285 12.468091469224328 a60.30779916650129,60.30779916650129 0 0,0 -0.3208023090978083,-0.9873279853981359 l 37.487101084458345 -11.824564583848389" fill="#58ff2a" stroke="none" /><path d="M 79.67330655649465 105.27499134158121 l -60.77435273265561 15.771585543215426 a83.78745782893432,83.78745782893432 0 0,0 -0.350266228636198,-1.3991394699177293 l 61.03683027558687 -14.723118233900307" fill="#4dd4ff" stroke="none" /><path d="M 79.4281124754447 104.21870165774334 l -24.648297465668303 5.054655935428741 a46.16124230998214,46.16124230998214 0 0,0 -0.1529257486396171,-0.779765097664576 l 24.731653147283588 -4.62962711069621" fill="#ffeb16" stroke="none" /><line stroke="#e1ed5e" stroke-width="0.3" x1="15.007084014347285" x2="10.007500721073583" y1="101.09737516637583" y2="101.16192664675087" /><path d="M 14.007167355692545 101.11028546245083 a86.0,86.0 0 0,1 10.666146001902534,-42.60595125391555" fill="none" id="id22" stroke="none" /><text fill="#e1ed5e" style="font-size:6.75px; font-family:Arial;" text-anchor="middle"><textPath startOffset="22.20632615414155" xlink:href="#id22">October</textPath></text><path d="M 79.16333360222342 97.38593545837743 l -12.659546373644178 -1.588203729743496 a33.75878150426672,33.75878150426672 0 0,0 0.07729796579321628,-0.5759596289155045 l 12.630332408793127 1.8058817007236598" fill="#ff2803" stroke="none" /><line stroke="#e1ed5e" stroke-width="0.3" x1="26.266209847984243" x2="21.928928074336255" y1="57.711370442889674" y2="55.22380399835377" /><path d="M 25.398753493254645 57.213857153982495 a86.0,86.0 0 0,1 29.58750427330803,-30.492523968695096" fill="none" id="id23" stroke="none" /><text fill="#e1ed5e" style="font-size:6.75px; font-family:Arial;" text-anchor="middle"><textPath startOffset="21.46611528233685" xlink:href="#id23">November</textPath></text><line stroke="#e1ed5e" stroke-width="0.3" x1="56.76296977257108" x2="54.21961505331056" y1="26.818313649435495" y2="22.513508569990535" /><path d="M 56.25429882871898 25.957352633546506 a86.0,86.0 0 0,1 42.26535254187918,-11.944610805530505" fill="none" id="id24" stroke="none" /><text fill="#e1ed5e" style="font-size:6.75px; font-family:Arial;" text-anchor="middle"><textPath startOffset="22.20632615414155" xlink:href="#id24">December</textPath></text></svg>