<?xml version="1.0" encoding="utf-8" ?>
<svg baseProfile="full" height="200mm" version="1.1" viewBox="0,0,200,200" width="200mm" xmlns="http://www.w3.org/2000/svg" xmlns:ev="http://www.w3.org/2001/xml-events" xmlns:xlink="http://www.w3.org/1999/xlink"><defs /><rect fill="#1a1a1a" height="200" width="200" x="0" y="0" /><text alignment-baseline="middle" fill="#e1ed5e" style="dominant-baseline: central; font-size:9.0px; font-family:Arial;" text-anchor="middle" x="100.0" y="100.0">2020</text><line stroke="#e1ed5e" stroke-width="0.3" x1="100.0" x2="100.0" y1="15.0" y2="10.0" /><path d="M 100.0 14.0 a86.0,86.0 0 0,1 42.35913384403234,11.155469271406648" fill="none" id="id49" stroke="none" /><text fill="#e1ed5e" style="font-size:6.75px; font-family:Arial;" text-anchor="middle"><textPath startOffset="22.145653131862478" xlink:href="#id49">January</textPath></text><line stroke="#e1ed5e" stroke-width="0.3" x1="143.13028292997686" x2="145.6673583964461" y1="26.7553504044142" y2="22.446841604673864" /><path d="M 143.63769802327073 25.89364864446614 a86.0,86.0 0 0,1 29.32050498858742,28.57503671076993" fill="none" id="id50" stroke="none" /><text fill="#e1ed5e" style="font-size:6.75px; font-family:Arial;" text-anchor="middle"><textPath startOffset="20.669276256404974" xlink:href="#id50">February</textPath></text><line stroke="#e1ed5e" stroke-width="0.3" x1="172.87174338648825" x2="177.1583165268699" y1="56.24261187166439" y2="53.66864786411523" /><path d="M 173.72905801456457 55.72781907015455 a86.0,86.0 0 0,1 12.242430191666344,42.057860355516425" fill="none" id="id51" stroke="none" /><text fill="#e1ed5e" style="font-size:6.75px; font-family:Arial;" text-anchor="middle"><textPath startOffset="22.145653131862474" xlink:href="#id51">March</textPath></text><path d="M 119.31412917781788 91.75594674310238 l 15.895121647250173 -6.78468224885309 a38.2825578372758,38.2825578372758 0 0,0 0.25280006557464085,0.6066281287466386 l -16.0092475573613 6.5108216106651735" fill="#ff8e0d" stroke="none" /><path d="M 120.82617615685814 97.30363454192243 l 18.465840101648837 -2.39077270015664 a39.61996360800624,39.61996360800624 0 0,0 0.08153772236219423,0.6752493093033192 l -18.504159910270698 2.0734297139299076" fill="#ffa20f" stroke="none" /><line stroke="#e1ed5e" stroke-width="0.3" x1="184.99686870605535" x2="189.99668451229388" y1="99.2704041080226" y2="99.22748670261217" /><path d="M 185.99683186730306 99.26182062694052 a86.0,86.0 0 0,1 -10.086455211305974,41.156179273409016" fill="none" id="id52" stroke="none" /><text fill="#e1ed5e" style="font-size:6.75px; font-family:Arial;" text-anchor="middle"><textPath startOffset="21.40746469413373" xlink:href="#id52">April</textPath></text><line stroke="#e1ed5e" stroke-width="0.3" x1="174.33088141563837" x2="178.70328620479359" y1="141.23008692659167" y2="143.65538615756765" /><path d="M 175.20536237346943 141.71514677278685 a86.0,86.0 0 0,1 -30.301960400862466,31.631185727798858" fill="none" id="id53" stroke="none" /><text fill="#e1ed5e" style="font-size:6.75px; font-family:Arial;" text-anchor="middle"><textPath startOffset="22.145653131862474" xlink:href="#id53">May</textPath></text><path d="M 116.1254893667686 113.45245675266167 l 16.900954802914217 14.099377599878313 a43.00987782687808,43.00987782687808 0 0,0 -0.47783039618597467,0.5628830052196367 l -16.656429843221126 -14.387427387547508" fill="#ffd413" stroke="none" /><path d="M 115.41159269507618 114.26474011684316 l 21.384736627584264 19.79339296691156 a50.13906940473096,50.13906940473096 0 0,0 -0.5900751669177157,0.6266393788432009 l -21.041805626930287 -20.157573805699258" fill="#c9ff1d" stroke="none" /><path d="M 113.31354834802062 116.24036423190432 l 39.94064504406187 48.721092695712976 a84.0,84.0 0 0,0 -1.1229969185789899,0.9046068248263857 l -39.098397355127624 -49.39954781433276" fill="#4dd2ff" stroke="none" /><line stroke="#e1ed5e" stroke-width="0.3" x1="143.1302829299769" x2="145.66735839644613" y1="173.24464959558577" y2="177.55315839532614" /><path d="M 143.63769802327073 174.10635135553383 a86.0,86.0 0 0,1 -40.68552437913181,11.842963189579606" fill="none" id="id54" stroke="none" /><text fill="#e1ed5e" style="font-size:6.75px; font-family:Arial;" text-anchor="middle"><textPath startOffset="21.407464694133747" xlink:href="#id54">June</textPath></text><path d="M 109.3889696526874 118.78422872680471 l 9.967390710053369 19.941458310442016 a43.293735378216795,43.293735378216795 0 0,0 -0.6676301177807454,0.3265713459784041 l -9.623600343010555 -20.109623406517642" fill="#ffd814" stroke="none" /><path d="M 109.06512990194946 118.94263497670748 l 15.72671613350941 32.8627881035991 a57.432024954510005,57.432024954510005 0 0,0 -0.8929621110886101,0.4179513562896845 l -15.160265308549294 -33.12791569145932" fill="#6eff28" stroke="none" /><path d="M 108.73861861582097 119.09545874513695 l 8.629584642969549 18.85719983695744 a41.73797764491812,41.73797764491812 0 0,0 -0.6540670968978103,0.2925558930447842 l -8.30460414321611 -19.002559480912076" fill="#ffc112" stroke="none" /><path d="M 108.07796709384702 119.3841803445677 l 6.5724036921604325 15.771376261631628 a38.086041070964384,38.086041070964384 0 0,0 -0.605650643169819,0.2463128439943552 l -6.300698587800173 -15.881876362205276" fill="#ff8b0c" stroke="none" /><path d="M 107.74402155503746 119.51999308798841 l 10.76151266785295 27.126041863370425 a50.18273979724461,50.18273979724461 0 0,0 -0.8034680506620703,0.3107987024556779 l -10.29427235469735 -27.30678045396414" fill="#c8ff1d" stroke="none" /><path d="M 106.72888874123015 119.89276391827305 l 8.920543951201909 26.372003114944782 a48.839875227449966,48.839875227449966 0 0,0 -0.7965022267392051,0.2618261024736507 l -8.466518986814968 -26.521250138820452" fill="#daff1c" stroke="none" /><path d="M 104.9986988182912 120.39639698878246 l 6.499477902025628 26.520087792537005 a48.304912919157786,48.304912919157786 0 0,0 -0.807078131415599,0.19046824145426403 l -6.043267616870151 -26.627752177637493" fill="#e1ff1b" stroke="none" /><path d="M 103.94208987418118 120.62667999033965 l 8.244880459490965 43.14069851891678 a64.92149727060047,64.92149727060047 0 0,0 -1.0964476251305633,0.19980928189090003 l -7.503098100809344 -43.275875974739044" fill="#32ff4a" stroke="none" /><path d="M 103.58742460773223 120.69131181640829 l 3.199494106870104 18.453831775954466 a39.729139589290355,39.729139589290355 0 0,0 -0.6729785112502573,0.11073835792786813 l -2.8822380925667743 -18.506036132378007" fill="#ffa40f" stroke="none" /><path d="M 101.80034050326958 120.92268563240118 l 2.371282903578623 27.557901767449128 a48.65973485833116,48.65973485833116 0 0,0 -0.8328484482904984,0.06446773719939998 l -1.8978654605128886 -27.59454727164358" fill="#dcff1b" stroke="none" /><path d="M 101.44090949804482 120.95050786540614 l 2.3218606650324447 33.75934449120162 a54.839095399012216,54.839095399012216 0 0,0 -0.9397218192038614,0.056531331108174356 l -1.7419944936961183 -33.79422780013448" fill="#8dff24" stroke="none" /><path d="M 100.72087961077811 120.9876233191556 l 0.6277480364197224 18.276199147172164 a39.286976865089684,39.286976865089684 0 0,0 -0.6742144472661442,0.017365372558285783 l -0.3139202750828344 -18.284282237080493" fill="#ff9d0e" stroke="none" /><line stroke="#e1ed5e" stroke-width="0.3" x1="101.45913802915013" x2="101.54496967792366" y1="184.9874750549273" y2="189.98673829345242" /><path d="M 101.47630435890484 185.9873277026323 a86.0,86.0 0 0,1 -42.54439059252881,-10.42667462771756" fill="none" id="id55" stroke="none" /><text fill="#e1ed5e" style="font-size:6.75px; font-family:Arial;" text-anchor="middle"><textPath startOffset="22.145653131862474" xlink:href="#id55">July</textPath></text><path d="M 99.63950707515114 120.99690560180557 l -0.47519095968508357 27.67749111171199 a48.68157005458799,48.68157005458799 0 0,0 -0.8354376046574229,-0.02151790919476917 l 0.9502418784132504 -27.665255485167176" fill="#dcff1b" stroke="none" /><line stroke="#e1ed5e" stroke-width="0.3" x1="58.13341422392154" x2="55.67067388415222" y1="173.97424548756322" y2="178.32567169271397" /><path d="M 57.64086615596768 174.84453072859336 a86.0,86.0 0 0,1 -31.369924170532247,-30.572349798747897" fill="none" id="id56" stroke="none" /><text fill="#e1ed5e" style="font-size:6.75px; font-family:Arial;" text-anchor="middle"><textPath startOffset="22.145653131862474" xlink:href="#id56">August</textPath></text><path d="M 85.08716467003676 114.78537596483092 l -23.611666232078537 23.40985833163118 a54.24954510007798,54.24954510007798 0 0,0 -0.6499953132735262,-0.6669524528803812 l 24.010048346502874 -23.00108318668306" fill="#95ff23" stroke="none" /><line stroke="#e1ed5e" stroke-width="0.3" x1="26.387840678322732" x2="22.057713659400534" y1="142.50000000000003" y2="145.00000000000006" /><path d="M 25.521815274538284 143.00000000000003 a86.0,86.0 0 0,1 -11.493303480769212,-40.785679425670985" fill="none" id="id57" stroke="none" /><text fill="#e1ed5e" style="font-size:6.75px; font-family:Arial;" text-anchor="middle"><textPath startOffset="21.40746469413373" xlink:href="#id57">September</textPath></text><line stroke="#e1ed5e" stroke-width="0.3" x1="15.003131293944662" x2="10.003315487706104" y1="100.72959589197737" y2="100.7725132973878" /><path d="M 14.003168132696942 100.73817937305945 a86.0,86.0 0 0,1 10.791469493833604,-42.45332614584628" fill="none" id="id58" stroke="none" /><text fill="#e1ed5e" style="font-size:6.75px; font-family:Arial;" text-anchor="middle"><textPath startOffset="22.145653131862435" xlink:href="#id58">October</textPath></text><path d="M 79.34024301695615 96.23510406497455 l -32.43694623799969 -5.9110921360940205 a53.97114634780348,53.97114634780348 0 0,0 0.17392512300657437,-0.910049737331848 l 32.33069482271096 6.467044438459183" fill="#98ff23" stroke="none" /><path d="M 79.48165901384962 95.52812308129327 l -16.13945927322355 -3.517520030155066 a37.51832596828697,37.51832596828697 0 0,0 0.1425502335623059,-0.6281026313587721 l 16.076698178103584 3.7940569954528467" fill="#ff830c" stroke="none" /><path d="M 80.16572619554312 93.10060997987247 l -7.831625138801669 -2.724245760481858 a29.291915778528725,29.291915778528725 0 0,0 0.16927913895092297,-0.4735038794021252 l 7.783705829806803 2.858284596264905" fill="#ff0000" stroke="none" /><line stroke="#e1ed5e" stroke-width="0.3" x1="26.387840678322718" x2="22.05771365940052" y1="57.49999999999999" y2="54.99999999999999" /><path d="M 25.521815274538284 56.99999999999999 a86.0,86.0 0 0,1 29.574782752854787,-30.34633250058573" fill="none" id="id59" stroke="none" /><text fill="#e1ed5e" style="font-size:6.75px; font-family:Arial;" text-anchor="middle"><textPath startOffset="21.40746469413373" xlink:href="#id59">November</textPath></text><path d="M 82.78059297857968 87.97951657250589 l -15.916873243610773 -11.111213690712006 a40.41148947231609,40.41148947231609 0 0,0 0.4019690474610385,-0.5654198052169017 l 15.723789097619763 11.382810722638428" fill="#ffae10" stroke="none" /><path d="M 86.96720088162412 83.53348406188908 l -5.24428724596981 -6.625985617934937 a29.450220951390694,29.450220951390694 0 0,0 0.3991066671933598,-0.31034775838465245 l 5.129770634141205 6.715034427940394" fill="#ff0300" stroke="none" /><path d="M 88.4268655584334 82.4767994020092 l -7.82773481075027 -11.852188187151564 a35.20379516506369,35.20379516506369 0 0,0 0.5071263731672575,-0.3287131881599969 l 7.623122805325987 11.984815217015466" fill="#ff5f08" stroke="none" /><line stroke="#e1ed5e" stroke-width="0.3" x1="56.869717070023135" x2="54.33264160355391" y1="26.7553504044142" y2="22.446841604673864" /><path d="M 56.362301976729285 25.89364864446614 a86.0,86.0 0 0,1 42.16139366436587,-11.88097634709845" fill="none" id="id60" stroke="none" /><text fill="#e1ed5e" style="font-size:6.75px; font-family:Arial;" text-anchor="middle"><textPath startOffset="22.145653131862474" xlink:href="#id60">December</textPath></text><path d="M 90.93487009805054 81.0573650232925 l -9.658946573457452 -20.18348343372082 a43.37561736417988,43.37561736417988 0 0,0 0.6744108862950045,-0.31565834778800783 l 9.311046973290924 20.346318013079372" fill="#ffd914" stroke="none" /><path d="M 92.93061703081487 80.22567764915836 l -6.962800122236141 -19.47619115865323 a41.683389654276056,41.683389654276056 0 0,0 0.6758549323276181,-0.2350974288812786 l 6.627439417863518 19.592847020103093" fill="#ffc011" stroke="none" /></svg>